# xmcd
#
# Track frame offsets: 
#        150
#        14772
#        32366
#        48001
#        64229
#        80966
#        98268
#        113420
#        136210
#        151871
#
# Disc length: 2051 seconds
#
# Revision: 0
# Processed by: cddbd v1.5.2PL0 Copyright (c) Steve Scherf et al.
# Submitted via: ExactAudioCopy v0.99pb4
#
DISCID=6e08010a
DTITLE=Acid, Milch und Honig - Sweet Club Prostytutka (Promo 2007)
DYEAR=2007
DGENRE=Tribal
TTITLE0=Netzwerksong
TTITLE1=Discospielplatz
TTITLE2=Kommerz
TTITLE3=Distanz
TTITLE4=Sag Mir
TTITLE5=The Teenagement
TTITLE6=Vermisst
TTITLE7=Summers With You
TTITLE8=Illusion
TTITLE9=Sweet Club Prostytutka (Untitled Bonus Track)
EXTD=
EXTT0=
EXTT1=
EXTT2=
EXTT3=
EXTT4=
EXTT5=
EXTT6=
EXTT7=
EXTT8=
EXTT9=
PLAYORDER=
